<mxfile host="65bd71144e">
    <diagram id="9c9ufv5dOwRs1AX1-HYt" name="ページ1">
        <mxGraphModel dx="1130" dy="779" grid="1" gridSize="10" guides="1" tooltips="1" connect="1" arrows="1" fold="1" page="1" pageScale="1" pageWidth="1600" pageHeight="900" math="0" shadow="0">
            <root>
                <mxCell id="0"/>
                <mxCell id="1" parent="0"/>
                <mxCell id="3" value="&lt;font style=&quot;font-size: 20px;&quot;&gt;FlightControler&lt;/font&gt;" style="rounded=0;whiteSpace=wrap;html=1;align=left;fillColor=#FFFFFF;fontColor=#000000;strokeColor=#000000;" parent="1" vertex="1">
                    <mxGeometry width="1600" height="40" as="geometry"/>
                </mxCell>
                <mxCell id="4" value="&lt;font style=&quot;font-size: 20px;&quot;&gt;NetWork Status&lt;/font&gt;" style="rounded=0;whiteSpace=wrap;html=1;align=left;fillColor=#FFFFFF;fontColor=#000000;strokeColor=#000000;" parent="1" vertex="1">
                    <mxGeometry y="860" width="1600" height="40" as="geometry"/>
                </mxCell>
                <mxCell id="5" value="&lt;div&gt;C:\Users\Luna&amp;gt;dir&lt;/div&gt;&lt;div&gt;&amp;nbsp;ドライブ C のボリューム ラベルは OS です。&lt;/div&gt;&lt;div&gt;&amp;nbsp;ボリューム シリアル番号は XXXX-XXXX です。&lt;/div&gt;&lt;div&gt;&lt;br&gt;&lt;/div&gt;&lt;div&gt;&amp;nbsp;C:\Users\Luna のディレクトリ&lt;/div&gt;&lt;div&gt;&lt;br&gt;&lt;/div&gt;&lt;div&gt;2024/11/20&amp;nbsp; 15:30&amp;nbsp; &amp;nbsp; &amp;lt;DIR&amp;gt;&amp;nbsp; &amp;nbsp; &amp;nbsp; &amp;nbsp; &amp;nbsp; Documents&lt;/div&gt;&lt;div&gt;2024/11/20&amp;nbsp; 15:32&amp;nbsp; &amp;nbsp; &amp;lt;DIR&amp;gt;&amp;nbsp; &amp;nbsp; &amp;nbsp; &amp;nbsp; &amp;nbsp; Downloads&lt;/div&gt;&lt;div&gt;2024/11/20&amp;nbsp; 15:32&amp;nbsp; &amp;nbsp; &amp;lt;DIR&amp;gt;&amp;nbsp; &amp;nbsp; &amp;nbsp; &amp;nbsp; &amp;nbsp; Desktop&lt;/div&gt;&lt;div&gt;2024/11/20&amp;nbsp; 15:33&amp;nbsp; &amp;nbsp; &amp;lt;DIR&amp;gt;&amp;nbsp; &amp;nbsp; &amp;nbsp; &amp;nbsp; &amp;nbsp; Music&lt;/div&gt;&lt;div&gt;2024/11/20&amp;nbsp; 15:33&amp;nbsp; &amp;nbsp; &amp;lt;DIR&amp;gt;&amp;nbsp; &amp;nbsp; &amp;nbsp; &amp;nbsp; &amp;nbsp; Pictures&lt;/div&gt;&lt;div&gt;2024/11/20&amp;nbsp; 15:33&amp;nbsp; &amp;nbsp; &amp;lt;DIR&amp;gt;&amp;nbsp; &amp;nbsp; &amp;nbsp; &amp;nbsp; &amp;nbsp; Videos&lt;/div&gt;&lt;div&gt;&lt;br&gt;&lt;/div&gt;&lt;div&gt;&amp;nbsp; &amp;nbsp; &amp;nbsp; &amp;nbsp; &amp;nbsp; &amp;nbsp; &amp;nbsp; &amp;nbsp;0 ファイル&amp;nbsp; &amp;nbsp; &amp;nbsp; &amp;nbsp; &amp;nbsp; &amp;nbsp; &amp;nbsp; &amp;nbsp;0 バイト&lt;/div&gt;&lt;div&gt;&amp;nbsp; &amp;nbsp; &amp;nbsp; &amp;nbsp; &amp;nbsp; &amp;nbsp; &amp;nbsp; &amp;nbsp;6 ディレクトリ&amp;nbsp; 123,456,789,012 バイトの空き領域&lt;/div&gt;&lt;div&gt;&lt;br&gt;&lt;/div&gt;&lt;div&gt;C:\Users\Luna&amp;gt;cd Desktop&lt;/div&gt;&lt;div&gt;&lt;br&gt;&lt;/div&gt;&lt;div&gt;C:\Users\Luna\Desktop&amp;gt;mkdir MyFolder&lt;/div&gt;&lt;div&gt;&lt;br&gt;&lt;/div&gt;&lt;div&gt;C:\Users\Luna\Desktop&amp;gt;cd MyFolder&lt;/div&gt;&lt;div&gt;&lt;br&gt;&lt;/div&gt;&lt;div&gt;C:\Users\Luna\Desktop\MyFolder&amp;gt;echo Hello, World! &amp;gt; hello.txt&lt;/div&gt;&lt;div&gt;&lt;br&gt;&lt;/div&gt;&lt;div&gt;C:\Users\Luna\Desktop\MyFolder&amp;gt;type hello.txt&lt;/div&gt;&lt;div&gt;Hello, World!&lt;/div&gt;&lt;div&gt;&lt;br&gt;&lt;/div&gt;&lt;div&gt;C:\Users\Luna\Desktop\MyFolder&amp;gt;del hello.txt&lt;/div&gt;&lt;div&gt;&lt;br&gt;&lt;/div&gt;&lt;div&gt;C:\Users\Luna\Desktop\MyFolder&amp;gt;dir&lt;/div&gt;&lt;div&gt;&amp;nbsp;ドライブ C のボリューム ラベルは OS です。&lt;/div&gt;&lt;div&gt;&amp;nbsp;ボリューム シリアル番号は XXXX-XXXX です。&lt;/div&gt;&lt;div&gt;&lt;br&gt;&lt;/div&gt;&lt;div&gt;&amp;nbsp;C:\Users\Luna\Desktop\MyFolder のディレクトリ&lt;/div&gt;&lt;div&gt;&lt;br&gt;&lt;/div&gt;&lt;div&gt;&amp;nbsp; &amp;nbsp; &amp;nbsp; &amp;nbsp; &amp;nbsp; &amp;nbsp; &amp;nbsp; &amp;nbsp;0 ファイル&amp;nbsp; &amp;nbsp; &amp;nbsp; &amp;nbsp; &amp;nbsp; &amp;nbsp; &amp;nbsp; &amp;nbsp;0 バイト&lt;/div&gt;&lt;div&gt;&amp;nbsp; &amp;nbsp; &amp;nbsp; &amp;nbsp; &amp;nbsp; &amp;nbsp; &amp;nbsp; &amp;nbsp;1 ディレクトリ&amp;nbsp; 123,456,789,012 バイトの空き領域&lt;/div&gt;&lt;div&gt;&lt;br&gt;&lt;/div&gt;&lt;div&gt;C:\Users\Luna\Desktop\MyFolder&amp;gt;cd ..&lt;/div&gt;&lt;div&gt;&lt;br&gt;&lt;/div&gt;&lt;div&gt;C:\Users\Luna\Desktop&amp;gt;rmdir MyFolder&lt;/div&gt;&lt;div&gt;&lt;br&gt;&lt;/div&gt;&lt;div&gt;C:\Users\Luna\Desktop&amp;gt;exit&lt;/div&gt;&lt;div&gt;&lt;br&gt;&lt;/div&gt;" style="rounded=0;html=1;fontSize=20;fillColor=#000000;fontColor=#FFFFFF;strokeColor=#000000;align=left;verticalAlign=top;whiteSpace=wrap;" parent="1" vertex="1">
                    <mxGeometry x="800" y="100" width="800" height="710" as="geometry"/>
                </mxCell>
                <mxCell id="6" value="InputBox" style="rounded=1;whiteSpace=wrap;html=1;fontSize=20;fillColor=#FFFFFF;fontColor=#000000;strokeColor=#000000;" parent="1" vertex="1">
                    <mxGeometry x="800" y="810" width="680" height="50" as="geometry"/>
                </mxCell>
                <mxCell id="7" value="Send Button" style="rounded=1;whiteSpace=wrap;html=1;fontSize=20;fillColor=#007FFF;fontColor=#000000;strokeColor=#000000;" parent="1" vertex="1">
                    <mxGeometry x="1480" y="810" width="120" height="50" as="geometry"/>
                </mxCell>
                <mxCell id="8" value="Log" style="rounded=0;whiteSpace=wrap;html=1;fontSize=20;fillColor=#FFFFFF;strokeColor=#000000;fontColor=#000000;" parent="1" vertex="1">
                    <mxGeometry y="480" width="400" height="380" as="geometry"/>
                </mxCell>
                <mxCell id="9" value="Log" style="rounded=0;whiteSpace=wrap;html=1;fontSize=20;fillColor=#FFFFFF;strokeColor=#000000;fontColor=#000000;" parent="1" vertex="1">
                    <mxGeometry x="400" y="100" width="400" height="380" as="geometry"/>
                </mxCell>
                <mxCell id="10" value="Log" style="rounded=0;whiteSpace=wrap;html=1;fontSize=20;fillColor=#FFFFFF;strokeColor=#000000;fontColor=#000000;" parent="1" vertex="1">
                    <mxGeometry x="400" y="480" width="400" height="380" as="geometry"/>
                </mxCell>
                <mxCell id="11" value="Log" style="rounded=0;whiteSpace=wrap;html=1;fontSize=20;fillColor=#FFFFFF;strokeColor=#000000;fontColor=#000000;" parent="1" vertex="1">
                    <mxGeometry y="100" width="400" height="380" as="geometry"/>
                </mxCell>
                <mxCell id="12" value="Menu and Clock" style="rounded=0;whiteSpace=wrap;html=1;fontSize=20;fontColor=#000000;fillColor=#FFFFFF;strokeColor=#000000;" parent="1" vertex="1">
                    <mxGeometry y="40" width="1600" height="60" as="geometry"/>
                </mxCell>
            </root>
        </mxGraphModel>
    </diagram>
</mxfile>